<?xml version="1.0" encoding="UTF-8"?>
<svg xmlns="http://www.w3.org/2000/svg" xmlns:xlink="http://www.w3.org/1999/xlink" viewBox="0 0 96 96" width="96px" height="96px">
<g id="surface8454128">
<path style=" stroke:none;fill-rule:nonzero;fill:rgb(40.392157%,22.745098%,71.764708%);fill-opacity:1;" d="M 94.800781 81.800781 C 94.800781 88.980469 88.980469 94.800781 81.800781 94.800781 L 14.199219 94.800781 C 7.019531 94.800781 1.199219 88.980469 1.199219 81.800781 L 1.199219 14.199219 C 1.199219 7.019531 7.019531 1.199219 14.199219 1.199219 L 81.800781 1.199219 C 88.980469 1.199219 94.800781 7.019531 94.800781 14.199219 Z M 94.800781 81.800781 "/>
<path style=" stroke:none;fill-rule:nonzero;fill:rgb(100%,100%,100%);fill-opacity:1;" d="M 71.476562 52.160156 C 69.789062 49.820312 67.34375 48.207031 64.199219 47.351562 C 64.199219 47.351562 66.851562 46.386719 69.242188 42.800781 C 70.671875 40.511719 71.398438 37.757812 71.398438 34.53125 C 71.398438 28.941406 69.371094 24.652344 65.316406 21.714844 C 61.261719 18.777344 56.683594 16.800781 48.910156 16.800781 L 24.601562 16.800781 L 24.601562 79.199219 L 51.71875 79.199219 C 59.074219 79.148438 64.613281 77.5625 68.382812 74.519531 C 72.128906 71.425781 74 66.851562 74 60.738281 C 74 57.359375 73.167969 54.5 71.476562 52.160156 Z M 40.199219 27.199219 C 40.199219 27.199219 51.042969 27.199219 51.25 27.199219 C 55.203125 27.199219 58.398438 30.398438 58.398438 34.351562 C 58.398438 38.300781 55.203125 41.5 51.25 41.5 C 51.042969 41.5 40.199219 41.5 40.199219 41.5 Z M 53.199219 68.800781 L 40.199219 68.800781 L 40.199219 53.199219 L 53.199219 53.199219 C 57.515625 53.199219 61 56.683594 61 61 C 61 65.316406 57.515625 68.800781 53.199219 68.800781 Z M 53.199219 68.800781 "/>
</g>
</svg>
