<?xml version="1.0" encoding="UTF-8"?>
<svg xmlns="http://www.w3.org/2000/svg" xmlns:xlink="http://www.w3.org/1999/xlink" viewBox="0 0 96 96" width="96px" height="96px">
<defs>
<linearGradient id="linear0" gradientUnits="userSpaceOnUse" x1="86" y1="14.78125" x2="86" y2="159.237061" gradientTransform="matrix(0.68093,0,0,0.68093,-10.56,-10.56)">
<stop offset="0" style="stop-color:rgb(10.196079%,42.745098%,100%);stop-opacity:1;"/>
<stop offset="1" style="stop-color:rgb(78.431374%,13.333334%,100%);stop-opacity:1;"/>
</linearGradient>
<linearGradient id="linear1" gradientUnits="userSpaceOnUse" x1="86" y1="21.55644" x2="86" y2="145.740433" gradientTransform="matrix(0.68093,0,0,0.68093,-10.56,-10.56)">
<stop offset="0" style="stop-color:rgb(54.11765%,70.588237%,100%);stop-opacity:1;"/>
<stop offset="1" style="stop-color:rgb(89.411765%,57.254905%,100%);stop-opacity:1;"/>
</linearGradient>
</defs>
<g id="surface8833966">
<path style=" stroke:none;fill-rule:nonzero;fill:url(#linear0);" d="M 48 95.578125 C 21.765625 95.578125 0.421875 74.238281 0.421875 48 C 0.421875 21.761719 21.765625 0.421875 48 0.421875 C 74.234375 0.421875 95.578125 21.761719 95.578125 48 C 95.578125 74.238281 74.234375 95.578125 48 95.578125 Z M 48 4.078125 C 23.785156 4.078125 4.078125 23.785156 4.078125 48 C 4.078125 72.214844 23.785156 91.921875 48 91.921875 C 72.214844 91.921875 91.921875 72.214844 91.921875 48 C 91.921875 23.785156 72.214844 4.078125 48 4.078125 Z M 48 4.078125 "/>
<path style=" stroke:none;fill-rule:nonzero;fill:url(#linear1);" d="M 11.398438 48 C 11.398438 62.484375 19.816406 75.003906 32.027344 80.9375 L 14.570312 33.105469 C 12.539062 37.65625 11.398438 42.691406 11.398438 48 Z M 72.707031 46.152344 C 72.707031 41.628906 71.082031 38.496094 69.691406 36.058594 C 67.835938 33.042969 66.09375 30.492188 66.09375 27.476562 C 66.09375 24.109375 68.644531 20.980469 72.242188 20.980469 C 72.40625 20.980469 72.558594 21 72.714844 21.007812 C 66.203125 15.042969 57.527344 11.398438 48 11.398438 C 35.210938 11.398438 23.964844 17.960938 17.417969 27.894531 C 18.277344 27.921875 19.085938 27.941406 19.773438 27.941406 C 23.601562 27.941406 29.527344 27.476562 29.527344 27.476562 C 31.5 27.359375 31.734375 30.257812 29.761719 30.492188 C 29.761719 30.492188 27.777344 30.722656 25.574219 30.839844 L 38.902344 70.484375 L 46.910156 46.460938 L 41.207031 30.839844 C 39.234375 30.726562 37.371094 30.492188 37.371094 30.492188 C 35.398438 30.375 35.628906 27.359375 37.601562 27.476562 C 37.601562 27.476562 43.644531 27.941406 47.242188 27.941406 C 51.066406 27.941406 56.996094 27.476562 56.996094 27.476562 C 58.96875 27.359375 59.203125 30.261719 57.230469 30.492188 C 57.230469 30.492188 55.242188 30.726562 53.039062 30.839844 L 66.265625 70.183594 L 70.042969 58.21875 C 71.722656 52.988281 72.707031 49.285156 72.707031 46.152344 Z M 48.640625 51.199219 L 37.660156 83.109375 C 40.941406 84.074219 44.40625 84.601562 48 84.601562 C 52.261719 84.601562 56.351562 83.863281 60.15625 82.523438 C 60.054688 82.367188 59.964844 82.203125 59.890625 82.019531 Z M 80.117188 30.441406 C 80.277344 31.605469 80.363281 32.855469 80.363281 34.203125 C 80.363281 37.917969 79.667969 42.089844 77.582031 47.3125 L 66.402344 79.632812 C 77.28125 73.289062 84.601562 61.5 84.601562 48 C 84.601562 41.636719 82.972656 35.652344 80.117188 30.441406 Z M 80.117188 30.441406 "/>
</g>
</svg>
