<?xml version="1.0" encoding="UTF-8"?>
<svg xmlns="http://www.w3.org/2000/svg" xmlns:xlink="http://www.w3.org/1999/xlink" viewBox="0 0 60 60" width="60px" height="60px">
<g id="surface47304024">
<path style=" stroke:none;fill-rule:nonzero;fill:rgb(0%,0%,0%);fill-opacity:1;" d="M 53.398438 1.398438 L 6.601562 1.398438 C 3.726562 1.398438 1.398438 3.726562 1.398438 6.601562 L 1.398438 53.398438 C 1.398438 56.273438 3.726562 58.601562 6.601562 58.601562 L 53.398438 58.601562 C 56.273438 58.601562 58.601562 56.273438 58.601562 53.398438 L 58.601562 6.601562 C 58.601562 3.726562 56.273438 1.398438 53.398438 1.398438 Z M 46.539062 40.3125 L 41.683594 40.382812 C 41.683594 40.382812 40.632812 40.585938 39.265625 39.640625 C 37.445312 38.394531 35.734375 35.144531 34.398438 35.566406 C 33.042969 36 33.082031 38.921875 33.082031 38.921875 C 33.082031 38.921875 33.09375 39.433594 32.785156 39.769531 C 32.449219 40.132812 31.792969 40.097656 31.792969 40.097656 L 29.613281 40.097656 C 29.613281 40.097656 24.816406 40.492188 20.585938 36.085938 C 15.976562 31.277344 11.90625 21.789062 11.90625 21.789062 C 11.90625 21.789062 11.667969 21.191406 11.921875 20.882812 C 12.210938 20.546875 12.988281 20.535156 12.988281 20.535156 L 18.1875 20.511719 C 18.1875 20.511719 18.675781 20.597656 19.03125 20.855469 C 19.320312 21.070312 19.484375 21.46875 19.484375 21.46875 C 19.484375 21.46875 20.324219 23.597656 21.4375 25.527344 C 23.613281 29.289062 24.621094 30.113281 25.359375 29.707031 C 26.433594 29.121094 26.113281 24.394531 26.113281 24.394531 C 26.113281 24.394531 26.132812 22.679688 25.570312 21.914062 C 25.136719 21.320312 24.3125 21.140625 23.953125 21.097656 C 23.660156 21.058594 24.140625 20.378906 24.761719 20.070312 C 25.699219 19.613281 27.351562 19.585938 29.304688 19.605469 C 30.828125 19.621094 31.265625 19.714844 31.859375 19.859375 C 33.652344 20.292969 33.042969 21.96875 33.042969 25.984375 C 33.042969 27.273438 32.8125 29.082031 33.738281 29.675781 C 34.140625 29.933594 35.113281 29.714844 37.546875 25.570312 C 38.703125 23.605469 39.566406 21.296875 39.566406 21.296875 C 39.566406 21.296875 39.757812 20.886719 40.050781 20.710938 C 40.351562 20.527344 40.757812 20.585938 40.757812 20.585938 L 46.230469 20.550781 C 46.230469 20.550781 47.875 20.355469 48.144531 21.101562 C 48.421875 21.878906 47.527344 23.703125 45.292969 26.683594 C 41.621094 31.582031 41.214844 31.128906 44.261719 33.960938 C 47.175781 36.667969 47.777344 37.984375 47.878906 38.152344 C 49.082031 40.15625 46.539062 40.3125 46.539062 40.3125 Z M 46.539062 40.3125 "/>
</g>
</svg>
