<svg width="12" height="9" viewBox="0 0 12 9" fill="none" xmlns="http://www.w3.org/2000/svg">
<path d="M7.04513 2.21995L8.42513 3.59995L1.18619 3.59995C0.726193 3.59995 0.363037 3.96311 0.363037 4.42311C0.363037 4.8831 0.726193 5.24626 1.18619 5.24626L8.40091 5.24626L7.02092 6.62626C6.70618 6.94099 6.70618 7.47363 7.02092 7.78836C7.33565 8.1031 7.86828 8.1031 8.18302 7.78836L10.9672 5.00416C11.1367 4.83468 11.2093 4.641 11.2093 4.42311C11.2093 4.20521 11.1367 4.01153 10.9672 3.84205L8.18302 1.05785C7.86828 0.743112 7.33565 0.743112 7.02092 1.05785C6.70618 1.3968 6.70618 1.90522 7.04513 2.21995Z" fill="black"/>
</svg>
