<svg width="70" height="47" viewBox="0 0 70 47" fill="none" xmlns="http://www.w3.org/2000/svg">
<path d="M0 3.6134V0.764648H13.4825V3.6134H8.45662V17.1071H5.02588V3.6134H0Z" fill="black"/>
<path d="M18.8851 17.3794C17.6237 17.3794 16.5379 17.1238 15.6277 16.6127C14.7229 16.0963 14.0257 15.367 13.536 14.4246C13.0463 13.477 12.8015 12.3563 12.8015 11.0626C12.8015 9.8009 13.0463 8.69355 13.536 7.74058C14.0257 6.78762 14.7149 6.04494 15.6038 5.51256C16.498 4.98018 17.5465 4.71399 18.7494 4.71399C19.5584 4.71399 20.3115 4.84442 21.0087 5.10529C21.7113 5.36083 22.3234 5.74681 22.845 6.26322C23.3719 6.77963 23.7817 7.42914 24.0745 8.21174C24.3672 8.98902 24.5136 9.89939 24.5136 10.9429V11.8772H14.1587V9.76896H21.3121C21.3121 9.27917 21.2057 8.84527 20.9928 8.46728C20.7799 8.08929 20.4845 7.79382 20.1066 7.58087C19.734 7.36259 19.3002 7.25345 18.8052 7.25345C18.289 7.25345 17.8312 7.37324 17.432 7.61281C17.0382 7.84706 16.7295 8.16382 16.5059 8.56311C16.2824 8.95707 16.168 9.39629 16.1626 9.88076V11.8852C16.1626 12.4921 16.2744 13.0165 16.498 13.4584C16.7268 13.9002 17.0488 14.241 17.464 14.4805C17.8791 14.7201 18.3715 14.8399 18.941 14.8399C19.3189 14.8399 19.6648 14.7867 19.9788 14.6802C20.2929 14.5737 20.5617 14.414 20.7852 14.201C21.0087 13.9881 21.1791 13.7272 21.2962 13.4184L24.4417 13.6261C24.282 14.382 23.9547 15.0422 23.4597 15.6065C22.9701 16.1655 22.3367 16.6021 21.5596 16.9162C20.7879 17.225 19.8963 17.3794 18.8851 17.3794Z" fill="black"/>
<path d="M28.1322 4.85034L30.3699 9.13544L32.6631 4.85034H36.1307L32.5996 10.9787L36.2259 17.1072H32.7742L30.3699 12.8699L28.0053 17.1072H24.5139L28.1322 10.9787L24.6408 4.85034H28.1322Z" fill="black"/>
<path d="M44.7178 4.90521V7.43987H37.3154V4.90521H44.7178ZM38.996 1.99036H42.4051V13.3329C42.4051 13.6445 42.4531 13.8874 42.5491 14.0617C42.6451 14.2306 42.7785 14.3494 42.9492 14.4181C43.1253 14.4867 43.328 14.5211 43.5574 14.5211C43.7175 14.5211 43.8775 14.5079 44.0376 14.4815C44.1976 14.4498 44.3204 14.426 44.4057 14.4102L44.9419 16.9211C44.7712 16.9739 44.5311 17.0346 44.2217 17.1032C43.9122 17.1772 43.5361 17.2221 43.0933 17.2379C42.2717 17.2696 41.5515 17.1613 40.9326 16.9131C40.3191 16.665 39.8416 16.2795 39.5001 15.7567C39.1587 15.2339 38.9906 14.5739 38.996 13.7765V1.99036Z" fill="black"/>
<path d="M56.2451 0.900848V17.1071H52.8405V0.900848H56.2451Z" fill="black"/>
<path d="M64.3716 17.3794C63.1102 17.3794 62.0244 17.1238 61.1142 16.6127C60.2094 16.0963 59.5122 15.367 59.0225 14.4246C58.5329 13.477 58.288 12.3563 58.288 11.0626C58.288 9.8009 58.5329 8.69355 59.0225 7.74058C59.5122 6.78762 60.2014 6.04494 61.0903 5.51256C61.9845 4.98018 63.033 4.71399 64.2359 4.71399C65.0449 4.71399 65.798 4.84442 66.4952 5.10529C67.1978 5.36083 67.8099 5.74681 68.3315 6.26322C68.8584 6.77963 69.2682 7.42914 69.561 8.21174C69.8537 8.98902 70.0001 9.89939 70.0001 10.9429V11.8772H59.6453V9.76896H66.7986C66.7986 9.27917 66.6922 8.84527 66.4793 8.46728C66.2664 8.08929 65.971 7.79382 65.5931 7.58087C65.2205 7.36259 64.7867 7.25345 64.2918 7.25345C63.7755 7.25345 63.3177 7.37324 62.9186 7.61281C62.5247 7.84706 62.216 8.16382 61.9925 8.56311C61.7689 8.95707 61.6545 9.39629 61.6492 9.88076V11.8852C61.6492 12.4921 61.7609 13.0165 61.9845 13.4584C62.2133 13.9002 62.5353 14.241 62.9505 14.4805C63.3656 14.7201 63.858 14.8399 64.4275 14.8399C64.8054 14.8399 65.1513 14.7867 65.4654 14.6802C65.7794 14.5737 66.0482 14.414 66.2717 14.201C66.4953 13.9881 66.6656 13.7272 66.7827 13.4184L69.9282 13.6261C69.7686 14.382 69.4412 15.0422 68.9462 15.6065C68.4566 16.1655 67.8232 16.6021 67.0461 16.9162C66.2744 17.225 65.3829 17.3794 64.3716 17.3794Z" fill="black"/>
<path d="M46.9846 17.107V5.93967H50.3892V17.107H46.9846Z" fill="black"/>
<path d="M47.384 3.81757C47.7463 4.15046 48.1807 4.3169 48.6869 4.3169C49.1932 4.3169 49.6248 4.15046 49.9819 3.81757C50.3442 3.4794 50.5254 3.07518 50.5254 2.60491C50.5254 2.13993 50.3442 1.74099 49.9819 1.40811C49.6248 1.06993 49.1932 0.900848 48.6869 0.900848C48.1807 0.900848 47.7463 1.06993 47.384 1.40811C47.0269 1.74099 46.8484 2.13993 46.8484 2.60491C46.8484 3.07518 47.0269 3.4794 47.384 3.81757Z" fill="black"/>
<path d="M5.02521 41.2121V25.0058H8.47788V32.1514H8.69317L14.5699 25.0058H18.7083L12.6482 32.2622L18.7801 41.2121H14.6496L10.1763 34.5491L8.47788 36.6066V41.2121H5.02521Z" fill="black"/>
<path d="M20.2783 41.2121V30.0448H23.683V41.2121H20.2783Z" fill="black"/>
<path d="M20.6776 27.9225C21.04 28.2554 21.4743 28.4219 21.9806 28.4219C22.4868 28.4219 22.9185 28.2554 23.2755 27.9225C23.6379 27.5844 23.8191 27.1801 23.8191 26.7099C23.8191 26.2449 23.6379 25.8459 23.2755 25.5131C22.9185 25.1749 22.4868 25.0058 21.9806 25.0058C21.4743 25.0058 21.04 25.1749 20.6776 25.5131C20.3206 25.8459 20.142 26.2449 20.142 26.7099C20.142 27.1801 20.3206 27.5844 20.6776 27.9225Z" fill="black"/>
<path d="M29.2626 34.1395V41.2121H25.862V28.9784H29.103V31.1368H29.2467C29.5181 30.4253 29.9731 29.8625 30.6117 29.4483C31.2503 29.0289 32.0246 28.8191 32.9347 28.8191C33.7862 28.8191 34.5286 29.005 35.1618 29.3766C35.7951 29.7483 36.2874 30.2793 36.6386 30.9696C36.9899 31.6545 37.1655 32.4722 37.1655 33.4227V41.2121H33.7649V34.028C33.7702 33.2793 33.5786 32.6953 33.1901 32.2758C32.8016 31.851 32.2668 31.6386 31.5856 31.6386C31.1279 31.6386 30.7235 31.7368 30.3722 31.9333C30.0263 32.1298 29.7549 32.4165 29.558 32.7935C29.3664 33.1652 29.268 33.6138 29.2626 34.1395Z" fill="black"/>
<path d="M44.9201 46.1148C43.8176 46.1148 42.8721 45.963 42.0838 45.6593C41.3008 45.3609 40.6777 44.9533 40.2143 44.4364C39.7509 43.9196 39.4499 43.3388 39.3114 42.6941L42.4593 42.2705C42.5552 42.5156 42.707 42.7447 42.9147 42.9578C43.1225 43.1709 43.3968 43.3414 43.7377 43.4693C44.0839 43.6025 44.5047 43.6691 45 43.6691C45.7404 43.6691 46.3503 43.488 46.8297 43.1257C47.3144 42.7687 47.5567 42.1692 47.5567 41.3273V39.0815H47.4129C47.2638 39.4225 47.0401 39.7448 46.7418 40.0486C46.4435 40.3523 46.06 40.6 45.5913 40.7919C45.1225 40.9837 44.5633 41.0796 43.9134 41.0796C42.992 41.0796 42.1531 40.8664 41.3967 40.4402C40.6457 40.0086 40.0465 39.3505 39.5991 38.466C39.157 37.5762 38.9359 36.4519 38.9359 35.0932C38.9359 33.7025 39.1623 32.541 39.615 31.6085C40.0678 30.676 40.6697 29.978 41.4207 29.5145C42.177 29.0509 43.0053 28.8191 43.9055 28.8191C44.5926 28.8191 45.1678 28.9363 45.6312 29.1708C46.0946 29.3999 46.4675 29.6876 46.7498 30.034C47.0374 30.375 47.2584 30.7107 47.4129 31.041H47.5407V28.979H50.9204V41.3753C50.9204 42.4197 50.6647 43.2935 50.1533 43.9968C49.642 44.7002 48.9336 45.2277 48.0281 45.5793C47.1279 45.9363 46.092 46.1148 44.9201 46.1148ZM44.992 38.522C45.5407 38.522 46.0041 38.3861 46.3822 38.1144C46.7657 37.8373 47.0587 37.443 47.2611 36.9315C47.4688 36.4146 47.5727 35.7966 47.5727 35.0772C47.5727 34.3579 47.4715 33.7345 47.2691 33.207C47.0667 32.6742 46.7737 32.2612 46.3902 31.9682C46.0067 31.6751 45.5407 31.5286 44.992 31.5286C44.4328 31.5286 43.9614 31.6804 43.5779 31.9841C43.1944 32.2825 42.9041 32.6981 42.707 33.231C42.5099 33.7638 42.4114 34.3792 42.4114 35.0772C42.4114 35.7859 42.5099 36.3987 42.707 36.9155C42.9094 37.427 43.1997 37.824 43.5779 38.1064C43.9614 38.3835 44.4328 38.522 44.992 38.522Z" fill="black"/>
</svg>
