<svg width="46" height="46" viewBox="0 0 46 46" fill="none" xmlns="http://www.w3.org/2000/svg">
<path d="M0 0H45.1008V45.1008H0V0Z" fill="black"/>
<path d="M5.70825 6.95166L7.79939 13.0555H14.9206L17.0117 6.95166L13.2251 9.26887L11.36 5.70828L9.49491 9.26887L5.70825 6.95166Z" fill="white"/>
<path d="M5.70825 32.78L7.79939 38.8839H14.9206L17.0117 32.78L13.2251 35.0972L11.36 31.5366L9.49491 35.0972L5.70825 32.78Z" fill="white"/>
<path d="M27.9197 6.95166L30.0108 13.0555H37.132L39.2231 6.95166L35.4365 9.26887L33.5714 5.70828L31.7063 9.26887L27.9197 6.95166Z" fill="white"/>
<path d="M27.9197 32.78L30.0108 38.8839H37.132L39.2231 32.78L35.4365 35.0972L33.5714 31.5366L31.7063 35.0972L27.9197 32.78Z" fill="white"/>
<path d="M16.9551 20.1201L19.0462 26.224H26.1674L28.2585 20.1201L24.4719 22.4373L22.6068 18.8767L20.7417 22.4373L16.9551 20.1201Z" fill="white"/>
</svg>
