<svg width="47" height="52" viewBox="0 0 47 52" fill="none" xmlns="http://www.w3.org/2000/svg">
<path opacity="0.7" d="M47 42.8125C47 47.625 18.5 52 18.5 52C18.5 52 18.5 47.4062 18.5 42.8125C18.5 40.1546 24.335 38 34 38C43.665 38 47 40.1546 47 42.8125Z" fill="#fff"/>
<path d="M36 17.875C36 35.75 18 52 18 52C18 52 0 34.9375 0 17.875C0 8.00291 8.05887 0 18 0C27.9411 0 36 8.00291 36 17.875Z" fill="#000"/>
<path d="M8 10.4538L9.24789 14.0963H13.4975L14.7453 10.4538L12.4857 11.8366L11.3727 9.71179L10.2597 11.8366L8 10.4538Z" fill="#fff"/>
<path d="M8 25.8669L9.24789 29.5093H13.4975L14.7453 25.8669L12.4857 27.2497L11.3727 25.1249L10.2597 27.2497L8 25.8669Z" fill="#fff"/>
<path d="M21.2546 10.4538L22.5025 14.0963H26.7521L28 10.4538L25.7403 11.8366L24.6273 9.71179L23.5143 11.8366L21.2546 10.4538Z" fill="#fff"/>
<path d="M21.2546 25.8669L22.5025 29.5093H26.7521L28 25.8669L25.7403 27.2497L24.6273 25.1249L23.5143 27.2497L21.2546 25.8669Z" fill="#fff"/>
<path d="M14.7117 18.3121L15.9596 21.9545H20.2091L21.457 18.3121L19.1973 19.6949L18.0843 17.5701L16.9714 19.6949L14.7117 18.3121Z" fill="#fff"/>
</svg>
