<svg width="15" height="30" viewBox="0 0 15 30" fill="none" xmlns="http://www.w3.org/2000/svg">
<path d="M7.5 0C3.35774 0 0 3.35774 0 7.5V14.6234C0 17.6987 1.88284 20.3661 4.55021 21.5272V19.1109C3.10669 18.1381 2.13389 16.5063 2.13389 14.6234V7.5C2.13389 4.55021 4.55021 2.13389 7.5 2.13389C10.4812 2.13389 12.8661 4.55021 12.8661 7.5V14.6234C12.8661 16.5063 11.8933 18.1381 10.4498 19.1109V21.5272C13.1172 20.3661 15 17.7301 15 14.6234V7.5C15 3.35774 11.6423 0 7.5 0Z" fill="black"/>
<path d="M7.49999 9.47705C8.09622 9.47705 8.56694 9.00634 8.56694 8.4101V5.52307C8.56694 4.92684 8.09622 4.45613 7.49999 4.45613C6.90376 4.45613 6.43304 4.92684 6.43304 5.52307V8.4101C6.43304 8.97496 6.90376 9.47705 7.49999 9.47705Z" fill="black"/>
<path d="M10.3556 24.4143L8.56693 26.203V16.8201C8.56693 16.2239 8.09621 15.7532 7.49998 15.7532C6.90375 15.7532 6.43303 16.2239 6.43303 16.8201V26.1716L4.64433 24.3829C4.23638 23.975 3.546 23.975 3.13805 24.3829C2.7301 24.7909 2.7301 25.4812 3.13805 25.8892L6.74684 29.498C6.96651 29.7176 7.21755 29.8118 7.49998 29.8118C7.78241 29.8118 8.03345 29.7176 8.25312 29.498L11.8619 25.8892C12.2699 25.4812 12.2699 24.7909 11.8619 24.3829C11.4226 23.975 10.7636 23.975 10.3556 24.4143Z" fill="black"/>
</svg>
