<svg width="114" height="113" viewBox="0 0 114 113" fill="none" xmlns="http://www.w3.org/2000/svg">
<path fill-rule="evenodd" clip-rule="evenodd" d="M28.9545 0L38.3634 9.40889V18.7739L19.5895 0H28.9545ZM0.81604 28.1384L10.2249 37.5473H19.5899L0.81604 18.7734V28.1384ZM10.2249 75.0948L0.81604 65.6859V56.3209L19.5899 75.0948H10.2249ZM0.81604 103.235L10.2249 112.644H19.5899L0.81604 93.8698V103.235ZM19.5899 37.5473L19.5903 27.2451L13.833 20.867H21.683V13.017L28.1012 18.7743L38.3634 18.7739L57.137 37.547V27.2452L51.3797 20.8671H59.2297V13.0171L65.6479 18.7744H75.9109V37.5483H66.5027L75.9108 46.9564V56.321L75.9109 75.0949H57.137L47.7724 75.0948L38.3643 65.6868V75.0949L19.5899 75.0948L19.5905 64.7918L13.8331 58.4137H21.6831V50.5637L28.1013 56.321H38.3631L19.5899 37.5473ZM57.137 75.0949V64.7918L51.3797 58.4137H59.2297V50.5637L65.6479 56.321H75.9108L57.1377 37.5483L57.137 37.547L47.7724 37.5473L38.3642 28.1392V37.5482H28.9552L38.3634 46.9564L38.3631 56.321H38.3643L57.137 75.0949ZM66.5019 0L75.9108 9.40889L75.9109 18.7744L57.1369 0H66.5019ZM38.3632 84.505L28.9543 75.0961H19.5893L38.3628 93.8696H28.1013L21.6831 88.1122V95.9622H13.8331L19.5905 102.34L19.5899 112.644L38.3643 112.643V103.236L47.7724 112.644H57.1373L75.9109 112.644V93.8698L75.9108 84.5054L66.5019 75.0966H57.1369L75.9109 93.8698H65.6479L59.2297 88.1125V95.9625H51.3797L57.137 102.341L57.1373 112.644L38.3643 93.8709V93.8696H38.3628L38.3632 84.505ZM75.9122 28.1382L85.3211 37.5471H94.6856V37.5483H94.6868L113.46 56.321H103.197L96.7785 50.5637V58.4137H88.9285L94.6858 64.7918V75.0941L75.9126 56.3209V65.6859L85.3215 75.0948L94.6858 75.0941L113.46 75.0949V56.321L113.46 46.9564L104.052 37.5483H113.46V18.7744H103.196L96.7783 13.0171V20.8671H88.9283L94.6856 27.2452V37.5471L75.9122 18.7733V28.1382ZM104.051 0L113.46 9.40889L113.46 18.7744L94.6859 0H104.051ZM75.9124 103.235L85.3213 112.644H94.6863L113.46 112.643V93.8699L113.46 84.5052L104.051 75.0963H94.6859L113.46 93.8699L103.196 93.8696L96.7783 88.1122V95.9622H88.9283L94.6856 102.34L94.6863 112.644L75.9124 93.8698V103.235Z" fill="black"/>
</svg>
