<svg width="114" height="114" viewBox="0 0 114 114" fill="none" xmlns="http://www.w3.org/2000/svg">
<path fill-rule="evenodd" clip-rule="evenodd" d="M24.4381 113.46L0.81604 89.8378V99.2085L15.0674 113.46H24.4381ZM43.1795 113.46L0.81604 71.0963V61.7256L52.5503 113.46H43.1795ZM113.46 89.8377L89.8376 113.46H99.2083L113.46 99.2084V89.8377ZM113.46 71.0963L71.0961 113.46H61.7254L113.46 61.7255V71.0963ZM89.8377 0.816162L113.46 24.4382V15.0675L99.2084 0.816162H89.8377ZM71.0966 0.816162L113.46 43.1792V52.5499L61.7259 0.816162H71.0966ZM43.179 0.816162L0.81604 43.1792V52.5499L52.5497 0.816162H43.179ZM24.4378 0.816162L0.81604 24.4379V15.0672L15.0671 0.816162H24.4378ZM56.2008 98.3689L52.4525 94.6206L14.9696 57.1378L15.9067 56.2007L19.655 52.4524L52.4525 19.6549L56.2008 15.9066L57.1378 14.9695L94.6207 52.4524L98.369 56.2007L99.3061 57.1378L57.1378 99.306L56.2008 98.3689ZM89.9354 57.1377L57.1378 89.9352L24.3403 57.1377L57.1378 24.3402L89.9354 57.1377ZM66.5086 61.8231L71.1939 57.1377L66.5086 52.4524L61.8232 47.767L57.1378 43.0817L52.4525 47.767L47.7671 52.4524L43.0818 57.1378L47.7671 61.8231L52.4525 66.5085L57.1378 71.1938L61.8232 66.5085L66.5086 61.8231ZM57.1378 52.4524L52.4525 57.1378L57.1378 61.8231L61.8232 57.1378L57.1378 52.4524Z" fill="black"/>
</svg>
