<svg width="113" height="112" viewBox="0 0 113 112" fill="none" xmlns="http://www.w3.org/2000/svg">
<path fill-rule="evenodd" clip-rule="evenodd" d="M0 18.13V0.477295C4.87932 0.477295 8.8348 4.42898 8.8348 9.30363C8.8348 14.1783 4.87932 18.13 0 18.13ZM0 64.9095V47.2568C4.87932 47.2568 8.8348 51.2085 8.8348 56.0832C8.8348 60.9578 4.87932 64.9095 0 64.9095ZM0 111.689V94.0364C4.87932 94.0364 8.8348 97.9881 8.8348 102.863C8.8348 107.737 4.87932 111.689 0 111.689ZM112.644 70.6466V88.2993C107.764 88.2993 103.809 84.3476 103.809 79.473C103.809 74.5983 107.764 70.6466 112.644 70.6466ZM112.644 23.8671C107.764 23.8671 103.809 27.8188 103.809 32.6934C103.809 37.568 107.764 41.5197 112.644 41.5197V23.8671ZM31.3635 32.6934C31.3635 37.568 27.4081 41.5197 22.5287 41.5197C17.6494 41.5197 13.6939 37.568 13.6939 32.6934C13.6939 27.8188 17.6494 23.8671 22.5287 23.8671C27.4081 23.8671 31.3635 27.8188 31.3635 32.6934ZM22.5287 88.2993C27.4081 88.2993 31.3635 84.3476 31.3635 79.473C31.3635 74.5983 27.4081 70.6466 22.5287 70.6466C17.6494 70.6466 13.6939 74.5983 13.6939 79.473C13.6939 84.3476 17.6494 88.2993 22.5287 88.2993ZM45.0575 18.13C49.9368 18.13 53.8923 14.1783 53.8923 9.30363C53.8923 4.42898 49.9368 0.477295 45.0575 0.477295C40.1782 0.477295 36.2227 4.42898 36.2227 9.30363C36.2227 14.1783 40.1782 18.13 45.0575 18.13ZM53.8923 56.0832C53.8923 60.9578 49.9368 64.9095 45.0575 64.9095C40.1782 64.9095 36.2227 60.9578 36.2227 56.0832C36.2227 51.2085 40.1782 47.2568 45.0575 47.2568C49.9368 47.2568 53.8923 51.2085 53.8923 56.0832ZM45.0575 111.689C49.9368 111.689 53.8923 107.737 53.8923 102.863C53.8923 97.9881 49.9368 94.0364 45.0575 94.0364C40.1782 94.0364 36.2227 97.9881 36.2227 102.863C36.2227 107.737 40.1782 111.689 45.0575 111.689ZM76.421 32.6934C76.421 37.568 72.4655 41.5197 67.5862 41.5197C62.7069 41.5197 58.7514 37.568 58.7514 32.6934C58.7514 27.8188 62.7069 23.8671 67.5862 23.8671C72.4655 23.8671 76.421 27.8188 76.421 32.6934ZM67.5862 88.2993C72.4655 88.2993 76.421 84.3476 76.421 79.473C76.421 74.5983 72.4655 70.6466 67.5862 70.6466C62.7069 70.6466 58.7514 74.5983 58.7514 79.473C58.7514 84.3476 62.7069 88.2993 67.5862 88.2993ZM90.1149 18.13C94.9943 18.13 98.9497 14.1783 98.9497 9.30363C98.9497 4.42898 94.9943 0.477295 90.1149 0.477295C85.2356 0.477295 81.2801 4.42898 81.2801 9.30363C81.2801 14.1783 85.2356 18.13 90.1149 18.13ZM98.9497 56.0832C98.9497 60.9578 94.9943 64.9095 90.1149 64.9095C85.2356 64.9095 81.2801 60.9578 81.2801 56.0832C81.2801 51.2085 85.2356 47.2568 90.1149 47.2568C94.9943 47.2568 98.9497 51.2085 98.9497 56.0832ZM90.1149 111.689C94.9943 111.689 98.9497 107.737 98.9497 102.863C98.9497 97.9881 94.9943 94.0364 90.1149 94.0364C85.2356 94.0364 81.2801 97.9881 81.2801 102.863C81.2801 107.737 85.2356 111.689 90.1149 111.689Z" fill="black"/>
</svg>
