<svg width="114" height="114" viewBox="0 0 114 114" fill="none" xmlns="http://www.w3.org/2000/svg">
<path fill-rule="evenodd" clip-rule="evenodd" d="M113.46 0.908203L99.1449 4.99815L109.37 15.223L113.46 0.908203ZM113.46 50.0727L99.1449 54.1626L109.37 64.3874L113.46 50.0727ZM99.1449 103.327L113.46 99.2371L109.37 113.552L99.1449 103.327ZM113.46 25.4904L99.1449 29.5804L109.37 39.8052L113.46 25.4904ZM99.1449 78.7448L113.46 74.6549L109.37 88.9697L99.1449 78.7448ZM64.2953 99.2371L49.9805 103.327L60.2053 113.552L64.2953 99.2371ZM49.9805 29.5804L64.2953 25.4904L60.2053 39.8052L49.9805 29.5804ZM64.2953 74.6549L49.9805 78.7448L60.2053 88.9697L64.2953 74.6549ZM74.5627 4.99816L88.8775 0.908222L84.7876 15.223L74.5627 4.99816ZM88.8775 50.0727L74.5627 54.1626L84.7876 64.3874L88.8775 50.0727ZM74.5627 103.327L88.8775 99.2371L84.7876 113.552L74.5627 103.327ZM88.8775 25.4904L74.5627 29.5804L84.7876 39.8052L88.8775 25.4904ZM74.5627 78.7448L88.8775 74.6549L84.7876 88.9697L74.5627 78.7448ZM39.7131 0.90822L25.3983 4.99816L35.6231 15.223L39.7131 0.90822ZM25.3983 54.1626L39.7131 50.0727L35.6231 64.3874L25.3983 54.1626ZM39.7131 99.2371L25.3983 103.327L35.6231 113.552L39.7131 99.2371ZM25.3983 29.5804L39.7131 25.4904L35.6231 39.8052L25.3983 29.5804ZM39.7131 74.6549L25.3983 78.7448L35.6231 88.9697L39.7131 74.6549ZM0.81604 4.99816L15.1308 0.908219L11.0409 15.223L0.81604 4.99816ZM15.1308 50.0727L0.816047 54.1626L11.0409 64.3874L15.1308 50.0727ZM0.81604 103.327L15.1308 99.2371L11.0409 113.552L0.81604 103.327ZM15.1308 25.4904L0.816047 29.5804L11.0409 39.8052L15.1308 25.4904ZM0.81604 78.7448L15.1308 74.6549L11.0409 88.9697L0.81604 78.7448ZM63.4614 1.99557L49.2848 6.04603L59.4109 16.1722L63.4614 1.99557ZM63.4614 50.6854L49.2848 54.7359L59.4109 64.862L63.4614 50.6854Z" fill="black"/>
</svg>
