<svg width="113" height="114" viewBox="0 0 113 114" fill="none" xmlns="http://www.w3.org/2000/svg">
<path fill-rule="evenodd" clip-rule="evenodd" d="M36.046 0.816162H26.6753L45.0575 19.1984L63.4397 0.816162H54.069L45.0575 9.82766L36.046 0.816162ZM81.1035 0.816162H71.7327L90.1149 19.1984L108.497 0.816162H99.1264L90.1149 9.82766L81.1035 0.816162ZM112.644 15.3716L90.1149 37.9004L67.5862 15.3716L45.0575 37.9004L22.5287 15.3716L0 37.9004V47.2711L22.5287 24.7423L45.0575 47.2711L67.5862 24.7423L90.1149 47.2711L112.644 24.7423V15.3716ZM112.644 43.5545L90.1149 66.0833L67.5862 43.5545L45.0575 66.0833L22.5287 43.5545L0 66.0833V75.454L22.5287 52.9253L45.0575 75.454L67.5862 52.9253L90.1149 75.454L112.644 52.9253V43.5545ZM112.644 71.6492L90.1149 94.1779L67.5862 71.6492L45.0575 94.1779L22.5287 71.6492L0 94.1779V103.549L22.5287 81.0199L45.0575 103.549L67.5862 81.0199L90.1149 103.549L112.644 81.0199V71.6492ZM112.644 100.097L99.2811 113.46H108.652L112.644 109.468V100.097ZM71.5781 113.46H80.9488L67.5862 100.097L54.2236 113.46H63.5943L67.5862 109.468L71.5781 113.46ZM26.5206 113.46H35.8913L22.5287 100.097L9.16614 113.46H18.5369L22.5287 109.468L26.5206 113.46ZM0 19.1984L18.3822 0.816162H9.01149L0 9.82766V19.1984Z" fill="black"/>
</svg>
