<svg width="114" height="113" viewBox="0 0 114 113" fill="none" xmlns="http://www.w3.org/2000/svg">
<path fill-rule="evenodd" clip-rule="evenodd" d="M19.4949 0H10.1242L0.908081 9.21614V18.5869L19.4949 0ZM0.908081 46.6992V37.3285L38.2366 0H47.6073L0.908081 46.6992ZM0.908081 74.8112V65.4405L66.3486 0H75.7193L0.908081 74.8112ZM0.908081 102.923V93.5527L94.4607 0H103.831L0.908081 102.923ZM19.3 112.644H9.92924L113.552 9.02116V18.3919L19.3 112.644ZM47.4121 112.644H38.0414L113.552 37.1333V46.504L47.4121 112.644ZM75.5243 112.644H66.1536L113.552 65.2455V74.6162L75.5243 112.644ZM103.636 112.644H94.2658L113.552 93.3577V102.728L103.636 112.644Z" fill="black"/>
</svg>
