<svg width="113" height="113" viewBox="0 0 113 113" fill="none" xmlns="http://www.w3.org/2000/svg">
<path fill-rule="evenodd" clip-rule="evenodd" d="M29.3286 6.31914e-06H38.3518L33.8402 4.51159L29.3286 6.31914e-06ZM56.0214 0L56.0212 0.000181991L56.021 1.39021e-05L51.3357 4.68537L51.3358 4.68554L46.6506 9.37081L46.6504 9.3707L41.9651 14.0561L51.3359 23.4268L56.0212 28.1121L56.0212 28.1122L60.7065 23.4268L70.0773 14.0561L65.392 9.37074L65.3919 9.37084L60.7065 4.68554L60.7067 4.68536L56.0214 0ZM14.0559 18.7415L9.37062 14.0562L14.0559 9.3709L18.7412 14.0562L14.0559 18.7415ZM0 14.0563L9.37058 23.4268L14.0559 28.1121L14.0559 28.1122L28.112 14.0561L23.4267 9.37074L23.4266 9.37084L18.7413 4.68554L18.7414 4.68536L14.0561 0L14.0559 0.000179042L14.0557 1.39021e-05L9.37037 4.68537L9.37054 4.68554L4.68526 9.37081L4.68515 9.3707L0 14.0559V14.0563ZM0 38.7935V29.7704L4.51158 34.2819L0 38.7935ZM0 56.4632L4.68536 61.1485L9.37058 65.8338L14.0559 70.5192L14.0559 70.5192L18.7412 65.8338L28.112 56.4631L23.4267 51.7778L23.4266 51.7779L18.7413 47.0926L18.7414 47.0924L14.0561 42.4071L14.0559 42.4072L14.0557 42.407L9.37037 47.0924L9.37057 47.0926L4.68529 51.7779L4.68515 51.7777L0 56.4629V56.4632ZM0 82.9675V73.9444L4.51158 78.4559L0 82.9675ZM0 98.4285V98.4282L4.68515 93.743L4.68529 93.7432L9.37057 89.0579L9.37037 89.0577L14.0557 84.3723L14.0559 84.3725L14.0561 84.3724L18.7414 89.0577L18.7413 89.0579L23.4266 93.7432L23.4267 93.7431L28.112 98.4284L28.1118 98.4284L23.4264 103.114L18.7412 107.799L18.6713 107.869L14.0559 112.484L9.37058 107.799L4.68536 103.114L0 98.4285ZM4.24362 112.644H0V108.4L4.24362 112.644ZM38.2576 112.644H29.4228L33.8402 108.226L38.2576 112.644ZM83.3151 112.644H74.4803L78.8977 108.226L83.3151 112.644ZM112.644 108.4V112.644H108.052L112.47 108.226L112.644 108.4ZM112.644 73.9444V82.9675L112.47 83.1413L107.785 78.4559L112.47 73.7706L112.644 73.9444ZM112.644 29.7704V38.7935L112.47 38.9673L107.785 34.2819L112.47 29.5966L112.644 29.7704ZM107.958 6.31914e-06H112.644V4.3378L112.47 4.51159L107.958 6.31914e-06ZM74.3861 6.31914e-06H83.4092L78.8977 4.51159L74.3861 6.31914e-06ZM98.4284 0L103.114 4.68536L103.114 4.68554L107.799 9.37074L112.484 14.0561L112.484 14.0561L107.799 18.7415L103.114 23.4268L98.4283 28.1122L98.4282 28.1121L93.7429 23.4268L84.3721 14.0561L89.0575 9.3707L89.0576 9.37082L93.7429 4.68554L93.7427 4.68537L98.4281 1.39021e-05L98.4282 0.000181991L98.4284 0ZM4.3378 6.31914e-06H0V4.33781L4.3378 6.31914e-06ZM18.7412 56.4632L14.0559 61.1485L9.37065 56.4632L14.0559 51.778L18.7412 56.4632ZM14.0559 103.114L9.37065 98.4285L14.0559 93.7432L18.7412 98.4285L14.0559 103.114ZM60.7065 14.0562L56.0212 18.7415L51.3359 14.0562L56.0212 9.3709L60.7065 14.0562ZM65.3919 51.7779L65.392 51.7778L70.0773 56.4631L60.7065 65.8338L56.0212 70.5192L56.0212 70.5192L51.3359 65.8338L46.6507 61.1485L41.9653 56.4632L41.9651 56.4631L46.6504 51.7777L46.6506 51.7779L51.3359 47.0926L51.3357 47.0924L56.021 42.407L56.0212 42.4072L56.0214 42.4071L60.7067 47.0924L60.7066 47.0926L65.3919 51.7779ZM60.7065 56.4632L56.0212 61.1485L51.3359 56.4632L56.0212 51.778L60.7065 56.4632ZM65.3917 103.114L70.0771 98.4284L70.0773 98.4284L65.392 93.7431L65.3919 93.7432L60.7066 89.0579L60.7067 89.0577L56.0214 84.3724L56.0212 84.3725L56.021 84.3723L51.3357 89.0577L51.3359 89.0579L46.6506 93.7432L46.6504 93.743L41.9651 98.4284L41.9653 98.4285L46.6507 103.114L51.3359 107.799L56.0212 112.484L60.7065 107.799L65.3917 103.114ZM56.0212 103.114L51.3359 98.4285L56.0212 93.7432L60.7065 98.4285L56.0212 103.114ZM103.114 14.0562L98.4282 18.7415L93.7429 14.0562L98.4282 9.3709L103.114 14.0562ZM107.799 61.1485L112.484 56.4631L107.799 51.7778L103.114 47.0926L103.114 47.0924L98.4284 42.4071L98.4282 42.4072L98.4281 42.407L93.7427 47.0924L93.7429 47.0926L89.0576 51.7779L89.0575 51.7777L84.3721 56.4631L84.3723 56.4632L89.0577 61.1485L93.7429 65.8338L98.4282 70.5192L98.4283 70.5192L103.114 65.8338L107.799 61.1485ZM98.4282 61.1485L93.743 56.4632L98.4282 51.778L103.114 56.4632L98.4282 61.1485ZM107.799 103.114L112.484 98.4284L107.799 93.7431L103.114 89.0579L103.114 89.0577L98.4284 84.3724L98.4282 84.3725L98.4281 84.3723L93.7427 89.0577L93.7429 89.0579L89.0576 93.7432L89.0575 93.743L84.3721 98.4284L84.3723 98.4285L89.0577 103.114L93.7429 107.799L98.4283 112.484L103.114 107.799L107.799 103.114ZM98.4282 103.114L93.743 98.4285L98.4282 93.7432L103.114 98.4285L98.4282 103.114ZM38.5256 34.2819L33.8402 29.5966L29.1548 34.2819L33.8402 38.9673L38.5256 34.2819ZM33.8402 73.7706L38.5256 78.4559L33.8402 83.1413L29.1548 78.4559L33.8402 73.7706ZM83.583 34.2819L78.8977 29.5966L74.2123 34.2819L78.8977 38.9673L83.583 34.2819ZM78.8977 73.7706L83.583 78.4559L78.8977 83.1413L74.2123 78.4559L78.8977 73.7706Z" fill="black"/>
</svg>
