<svg width="114" height="114" viewBox="0 0 114 114" fill="none" xmlns="http://www.w3.org/2000/svg">
<path fill-rule="evenodd" clip-rule="evenodd" d="M28.9746 9.88374L19.9991 0.908206L10.6283 0.908203L24.2893 14.5691L28.9746 9.88374ZM28.9746 19.2545L52.4014 42.6813L57.0868 37.9959L33.66 14.5691L28.9746 19.2545ZM61.7721 42.6813L57.0868 47.3666L80.5135 70.7934L85.1989 66.108L61.7721 42.6813ZM89.8842 70.7934L85.1989 75.4788L108.626 98.9056L113.311 94.2202L89.8842 70.7934ZM113.552 103.35L113.311 103.591L113.552 103.832V103.35ZM57.0867 9.88377L48.1112 0.908206H38.7405L52.4014 14.5691L57.0867 9.88377ZM57.0867 19.2545L80.5136 42.6813L85.1989 37.9959L61.7721 14.5691L57.0867 19.2545ZM89.8843 42.6813L85.1989 47.3667L108.626 70.7934L113.311 66.108L89.8843 42.6813ZM113.552 75.238L113.311 75.4787L113.552 75.7195V75.238ZM85.1988 9.88372L76.2233 0.90821H66.8526L80.5135 14.5691L85.1988 9.88372ZM85.1989 19.2545L108.626 42.6813L113.311 37.996L89.8842 14.5691L85.1989 19.2545ZM113.552 47.126L113.311 47.3667L113.552 47.6073V47.126ZM108.626 14.5692L94.9648 0.908213H104.336L113.311 9.8838L108.626 14.5692ZM113.552 19.0138L113.311 19.2545L113.552 19.4952V19.0138ZM0.908088 47.321L5.54779 42.6813L28.9745 66.108L24.2892 70.7934L0.908088 47.4123V47.321ZM28.9745 75.4788L52.4014 98.9056L57.0867 94.2202L33.6599 70.7934L28.9745 75.4788ZM61.7721 98.9056L57.0867 103.591L67.0477 113.552H76.4184L61.7721 98.9056ZM0.908084 75.4332V75.5245L24.2892 98.9056L28.9746 94.2202L5.54779 70.7935L0.908084 75.4332ZM33.66 98.9056L28.9746 103.591L38.9355 113.552H48.3062L33.66 98.9056ZM5.5478 14.5691L28.9746 37.9959L24.2892 42.6813L0.908091 19.3001V19.2088L5.5478 14.5691ZM28.9746 47.3666L52.4014 70.7935L57.0868 66.1081L33.66 42.6813L28.9746 47.3666ZM57.0868 75.4788L61.7721 70.7935L85.1989 94.2203L80.5136 98.9056L57.0868 75.4788ZM85.1989 103.591L89.8843 98.9056L104.531 113.552H95.1598L85.1989 103.591ZM0.908081 103.612V103.637L10.8233 113.552H20.194L5.58096 98.9388L0.908081 103.612Z" fill="black"/>
</svg>
