<svg width="112" height="112" viewBox="0 0 112 112" fill="none" xmlns="http://www.w3.org/2000/svg">
<path fill-rule="evenodd" clip-rule="evenodd" d="M6.68225 0H0V6.68225V15.9896H6.68225V6.68225H15.9897V0H6.68225ZM30.5474 0H39.8549V6.68225H30.5474V15.9896H23.8652L23.8653 0H30.5474ZM54.4126 6.68225H63.7202V0H54.4126H47.7305L47.7304 15.9896H54.4126V6.68225ZM78.2781 0H87.5855V6.68225H78.2781V15.9896H71.5958V6.68225V0H78.2781ZM102.143 6.68225H111.451V0H102.143H95.4611L95.4611 6.68225V15.9896H102.143V6.68225ZM0 39.8549V30.5474V23.8652H6.68225L15.9897 23.8651V30.5474H6.68225V39.8549H0ZM30.5474 23.8652L39.8549 23.8651V30.5474H30.5474V39.8549H23.8652L23.8653 23.8651L30.5474 23.8652ZM54.4126 30.5474H63.7202V23.8651L54.4126 23.8652L47.7305 23.8651L47.7304 39.8549H54.4126V30.5474ZM78.2781 23.8651H87.5855V30.5474H78.2781V39.8549H71.5958V30.5474V23.8651H78.2781ZM102.143 30.5474H111.451V23.8651H102.143H95.4611L95.4611 30.5474V39.8549H102.143V30.5474ZM0 63.72V54.4124V47.7303L15.9897 47.7301V54.4124H6.68225V63.72H0ZM23.8653 47.7301H39.8549V54.4124H30.5474V63.72H23.8652L23.8653 47.7301ZM54.4126 54.4124H63.7202V47.7301H47.7305L47.7304 63.72H54.4126V54.4124ZM78.2781 47.7301H87.5855V54.4124H78.2781V63.7198H71.5958V54.4124V47.7301H78.2781ZM102.143 54.4124H111.451V47.7301H102.143H95.4611L95.4611 54.4124V63.7198H102.143V54.4124ZM0 87.3463V78.2776V71.5953H6.68225H15.9897V78.2776H6.68225V87.3463H0ZM30.5475 71.5953H39.8549V78.2776H30.5475V87.3463H23.8653V78.2776V71.5953H30.5475ZM63.7202 71.5953H54.4128H47.7305V78.2776V87.3463H54.4128V78.2776H63.7202V71.5953ZM78.2781 71.5953H87.5855V78.2776H78.2781V87.3463H71.5958V78.2776V71.5953H78.2781ZM95.4611 71.5953L95.4611 78.2776V87.3463H102.143V78.2776H111.451V71.5953H102.143H95.4611ZM0 111.211V102.143V95.4603H6.68225H15.9897V102.143H6.68225V111.211H0ZM30.5475 95.4603H39.8549V102.143H30.5475V111.211H23.8653V102.143V95.4603H30.5475ZM63.7202 95.4603H54.4128H47.7305V102.143V111.211H54.4128V102.143H63.7202V95.4603ZM78.2781 95.4603H87.5855V102.143H78.2781V111.211H71.5958V102.143V95.4603H78.2781ZM95.4611 95.4603L95.4611 102.143V111.211H102.143V102.143H111.451V95.4603H102.143H95.4611Z" fill="black"/>
</svg>
