<svg width="114" height="114" viewBox="0 0 114 114" fill="none" xmlns="http://www.w3.org/2000/svg">
<path fill-rule="evenodd" clip-rule="evenodd" d="M80.3644 19.7247L94.4205 33.7808L89.7351 38.4661L75.679 24.4101L80.3644 19.7247ZM38.1961 90.0051L24.14 75.9491L19.4547 80.6344L33.5108 94.6905L38.1961 90.0051ZM113.552 6.05844V0.816162H108.309L113.552 6.05844ZM80.1973 0.816162H89.568L94.4205 5.6686L89.7351 10.354L80.1973 0.816162ZM52.0851 0.816162H61.4559L66.3083 5.6686L61.6229 10.354L52.0851 0.816162ZM23.973 0.816162H33.3437L38.1961 5.6686L33.5108 10.354L23.973 0.816162ZM0.908081 5.86345V0.816162H5.23151L10.084 5.6686L5.39859 10.354L0.908081 5.86345ZM0.908081 33.9756V24.6049L10.084 33.7808L5.39859 38.4661L0.908081 33.9756ZM0.908081 62.0878V52.7171L10.084 61.8929L5.39859 66.5783L0.908081 62.0878ZM0.908081 80.8292L10.084 90.0051L5.39859 94.6905L0.908081 90.2V80.8292ZM5.4267 113.46H0.908081V108.941L5.4267 113.46ZM33.5389 113.46H24.1682L19.4547 108.746L24.14 104.061L33.5389 113.46ZM61.651 113.46H52.2803L47.5669 108.746L52.2522 104.061L61.651 113.46ZM89.7632 113.46H80.3925L75.679 108.746L80.3644 104.061L89.7632 113.46ZM113.552 109.136V113.46H108.505L103.791 108.746L108.477 104.061L113.552 109.136ZM113.552 81.0242V90.395L103.791 80.6344L108.477 75.9491L113.552 81.0242ZM113.552 52.9121V62.2828L103.791 52.5222L108.477 47.8369L113.552 52.9121ZM113.552 24.7999V34.1706L103.791 24.4101L108.477 19.7247L113.552 24.7999ZM66.3083 61.8929L52.2522 47.8369L47.5669 52.5222L61.6229 66.5783L66.3083 61.8929ZM80.3644 47.8369L94.4205 61.8929L89.7351 66.5783L75.679 52.5222L80.3644 47.8369ZM66.3083 90.0051L52.2522 75.9491L47.5669 80.6344L61.6229 94.6905L66.3083 90.0051ZM94.4205 90.0051L80.3644 75.9491L75.679 80.6344L89.7351 94.6905L94.4205 90.0051ZM38.1961 33.7808L24.14 19.7247L19.4547 24.4101L33.5108 38.4661L38.1961 33.7808ZM52.2522 19.7247L66.3083 33.7808L61.6229 38.4661L47.5669 24.4101L52.2522 19.7247ZM38.1961 61.8929L24.14 47.8369L19.4547 52.5222L33.5108 66.5783L38.1961 61.8929ZM89.735 47.8369L103.791 33.7808L108.476 38.4662L94.4203 52.5222L89.735 47.8369ZM47.5667 90.0049L33.5106 104.061L38.196 108.746L52.2521 94.6903L47.5667 90.0049ZM75.6789 61.893L61.6228 75.9491L66.3082 80.6344L80.3642 66.5783L75.6789 61.893ZM89.735 75.9491L103.791 61.893L108.476 66.5783L94.4203 80.6344L89.735 75.9491ZM75.6789 90.0049L61.6228 104.061L66.3082 108.746L80.3642 94.6903L75.6789 90.0049ZM19.4545 5.66863L5.39845 19.7247L10.0838 24.4101L24.1399 10.354L19.4545 5.66863ZM33.5106 19.7247L47.5667 5.66863L52.2521 10.354L38.196 24.4101L33.5106 19.7247ZM19.4545 33.7808L5.39845 47.8369L10.0838 52.5222L24.1399 38.4662L19.4545 33.7808ZM103.791 90.0049L89.735 104.061L94.4203 108.746L108.476 94.6903L103.791 90.0049ZM61.6228 19.7247L75.6789 5.66863L80.3642 10.354L66.3082 24.4101L61.6228 19.7247ZM19.4545 61.893L5.39845 75.9491L10.0838 80.6344L24.1399 66.5783L19.4545 61.893ZM47.5667 33.7808L33.5106 47.8369L38.196 52.5222L52.2521 38.4662L47.5667 33.7808ZM61.6228 47.8369L75.6789 33.7808L80.3642 38.4662L66.3082 52.5222L61.6228 47.8369ZM19.4545 90.0049L5.39845 104.061L10.0838 108.746L24.1399 94.6903L19.4545 90.0049ZM89.735 19.7247L103.791 5.66863L108.476 10.354L94.4203 24.4101L89.735 19.7247ZM47.5667 61.893L33.5106 75.9491L38.196 80.6344L52.2521 66.5783L47.5667 61.893Z" fill="black"/>
</svg>
