<svg width="113" height="113" viewBox="0 0 113 113" fill="none" xmlns="http://www.w3.org/2000/svg">
<path fill-rule="evenodd" clip-rule="evenodd" d="M13.365 0H6.68271V22.4332H13.365V0ZM0 22.4332H6.68225V45.1052H0V22.4332ZM0 67.5385H6.68225V89.9718H0V67.5385ZM105.485 0H112.167V22.4332H105.485V0ZM13.365 45.1052H6.68271V67.5385H13.365V45.1052ZM105.485 45.1052H112.167V67.5385H105.485V45.1052ZM13.365 89.9717H6.68271V112.644H13.365V89.9717ZM105.485 89.9717H112.167V112.644H105.485V89.9717ZM31.2637 22.4332H24.8201V45.1052H31.2637V67.5385H24.8201V89.9718H31.2637L31.263 112.644H37.9453V89.9717L31.2637 89.9718V67.5385H37.9453V45.1052H31.2637V22.4332ZM31.2637 22.4332L31.263 0H37.9453V22.4332H31.2637ZM49.4004 22.4332H56.0826V45.1052H49.4004V22.4332ZM56.0826 67.5385H49.4004V89.9718H56.0826V67.5385ZM56.0832 0H62.7654V22.4332H56.0832V0ZM62.7654 45.1052H56.0831V67.5385H62.7654V45.1052ZM56.0831 89.9717H62.7654V112.644H56.0831V89.9717ZM80.9028 22.4332H74.2205V45.1052H80.9028V22.4332ZM74.2205 67.5385H80.9028V89.9718H74.2205V67.5385ZM87.3466 0H80.903V22.4332H87.3466V0ZM80.9032 45.1052H87.3468V67.5385H80.9032V45.1052ZM87.3468 89.9717H80.9032V112.644H87.3468V89.9717ZM99.0406 22.4332H105.484V45.1052H99.0406V22.4332ZM105.484 67.5385H99.0406V89.9718H105.484V67.5385Z" fill="black"/>
</svg>
