<svg width="113" height="107" viewBox="0 0 113 107" fill="none" xmlns="http://www.w3.org/2000/svg">
<path fill-rule="evenodd" clip-rule="evenodd" d="M0 16.3517V0.0104997L8.42552e-07 0.010498L4.08168 7.9297L12.3687 2.77593L7.79229 16.3517H0ZM0 61.4005L8.42552e-07 45.0593L4.08168 52.9785L12.3687 47.8247L7.79229 61.4005H0ZM0 106.449L8.42552e-07 90.108L4.08168 98.0272L12.3687 92.8734L7.79229 106.449H0ZM112.644 67.5836V83.9249H104.851L100.275 70.3491L108.562 75.5028L112.644 67.5836ZM112.644 22.5349L108.562 30.4541L100.275 25.3003L104.851 38.8761H112.644V22.5349ZM37.2652 16.3517L32.6888 2.77593L40.9758 7.9297L45.0575 0.010498L49.1392 7.9297L57.4262 2.77593L52.8498 16.3517H37.2652ZM77.7462 2.77593L82.3227 16.3517H97.9072L102.484 2.77593L94.1966 7.9297L90.1149 0.010498L86.0333 7.9297L77.7462 2.77593ZM32.6888 47.8247L37.2652 61.4005H52.8498L57.4262 47.8247L49.1392 52.9785L45.0575 45.0593L40.9758 52.9785L32.6888 47.8247ZM82.3227 61.4005L77.7462 47.8247L86.0333 52.9785L90.1149 45.0593L94.1966 52.9785L102.484 47.8247L97.9072 61.4005H82.3227ZM37.2652 106.449L32.6888 92.8734L40.9758 98.0272L45.0575 90.108L49.1392 98.0272L57.4262 92.8734L52.8498 106.449H37.2652ZM77.7462 92.8734L82.3227 106.449H97.9072L102.484 92.8734L94.1966 98.0272L90.1149 90.108L86.0333 98.0272L77.7462 92.8734ZM14.7364 38.8761L10.16 25.3003L18.4471 30.4541L22.5287 22.5349L26.6104 30.4541L34.8975 25.3003L30.321 38.8761H14.7364ZM55.2175 25.3003L59.7939 38.8761H75.3785L79.9549 25.3003L71.6679 30.4541L67.5862 22.5349L63.5045 30.4541L55.2175 25.3003ZM10.16 70.3491L14.7364 83.9249H30.321L34.8975 70.3491L26.6104 75.5028L22.5287 67.5836L18.4471 75.5028L10.16 70.3491ZM59.7939 83.9249L55.2175 70.3491L63.5045 75.5028L67.5862 67.5836L71.6679 75.5028L79.9549 70.3491L75.3785 83.9249H59.7939Z" fill="black"/>
</svg>
